<svg width="127" height="40" viewBox="0 0 127 40" fill="none" xmlns="http://www.w3.org/2000/svg">
<path d="M18.8942 29.6202L17.5417 29.7369L18.0916 36.1132L19.4442 35.9966L18.8942 29.6202Z" fill="#FAC252"/>
<path d="M17.5527 29.7468L18.9029 29.6202L18.9873 30.7595C18.9873 30.7595 18.8611 30.8428 18.5407 30.931C18.2202 31.0193 17.6793 31.0548 17.6793 31.0548L17.5527 29.7468Z" fill="#FFAA00"/>
<path d="M15.5731 29.7657L14.2205 29.8824L14.7704 36.2587L16.123 36.1421L15.5731 29.7657Z" fill="#FAC252"/>
<path d="M24.2616 36.6949H14.7893L14.6591 34.9598C14.6591 34.9598 19.3247 35.3608 22.1593 35.3608C23.8954 35.3608 24.2616 36.2046 24.2616 36.6949Z" fill="#FAC252"/>
<path d="M23.9476 36.5155H15.437C15.437 36.5155 17.1391 36.0025 18.2592 35.8145C19.6168 35.5865 19.8887 35.5582 21.775 35.5582C23.5083 35.5582 23.9476 36.0238 23.9476 36.5155Z" fill="#FFAA00"/>
<path d="M14.2204 29.8829L15.5729 29.7662L15.7158 31.4802C15.7158 31.4802 15.3614 31.5821 14.9876 31.5384C14.6138 31.4947 14.3468 31.3588 14.3468 31.3588L14.2204 29.8829Z" fill="#FFAA00"/>
<path d="M19.2082 19.2924C17.5632 18.9784 15.0925 15.9442 18.5636 12.3604C22.4879 8.30874 21.0003 1.20074 16.4003 1.62844C14.0476 1.84719 13.4827 3.97614 13.4827 3.97614C13.4827 3.97614 11.6117 2.53981 9.16523 3.57243C6.71867 4.60506 7.32622 8.40479 7.32622 8.40479C7.32622 8.40479 6.23972 8.44137 5.73636 8.62449C1.92464 10.0113 1.57678 17.5847 6.3329 23.244C10.3298 27.9999 14.1257 29.5777 20.4754 27.2261C25.596 25.3296 27.7982 21.9221 30.8246 18.2123C33.069 15.4611 36.2777 11.688 34.3442 9.57943C32.4108 7.47087 29.9378 8.67546 27.5146 11.7823C23.8572 16.4717 22.9398 20.0049 19.2082 19.2924Z" fill="white"/>
<path d="M37.5463 38.6831C33.6411 37.3883 28.4997 34.718 27.3259 32.8244C25.4538 29.8041 25.2544 26.4083 28.2863 22.8799C29.8442 21.0667 30.1267 20.6071 31.2978 19.0989C32.469 17.5908 35.06 13.65 35.06 13.65C34.5555 14.4278 35.0227 16.4615 36.2835 25.4036C37.1494 31.5454 38.1146 37.9312 38.1146 37.9312C38.1146 37.9312 36.6425 40.6255 33.925 19.0236C33.846 18.3956 33.9549 17.2337 33.3389 19.0973C32.7228 20.9609 34.0478 28.7893 35.1295 33.3311C36.2157 37.8919 37.8667 38.7893 37.5463 38.6831Z" fill="#FFAA00"/>
<path d="M31.4381 13.0872C31.8129 13.0872 32.1168 12.7834 32.1168 12.4086C32.1168 12.0338 31.8129 11.73 31.4381 11.73C31.0634 11.73 30.7595 12.0338 30.7595 12.4086C30.7595 12.7834 31.0634 13.0872 31.4381 13.0872Z" fill="#00033D"/>
<g clip-path="url(#clip0_3301_16)">
<path fill-rule="evenodd" clip-rule="evenodd" d="M101.417 19.118H95.4443V28.4263C95.4443 29.9635 96.0419 30.8374 97.2364 30.8374C98.6051 30.8374 99.5009 29.6319 99.8991 27.5523L100.248 27.6727C99.8493 30.5661 98.4805 33.3994 94.8471 33.3994C92.1096 33.3994 90.0692 31.7718 90.0941 28.3057L90.1685 19.118H88.5512V18.6006C91.6122 17.9375 94.0757 15.9785 95.1457 12.9344H95.4443V18.1787H99.7994C102.985 18.1787 105.324 15.9785 106.394 12.9344H106.693V18.1787H118.439V18.239C117.817 18.6308 117.593 18.9924 117.593 19.5952C117.593 20.0775 117.767 20.7104 118.041 21.283L121.227 27.9441L123.765 21.6748C123.964 21.1625 124.039 20.7104 124.039 20.2884C124.039 19.2938 123.491 18.6007 122.52 18.239V18.1787H127V18.239C125.98 19.0528 125.482 19.6556 124.71 21.5846L118.613 36.2928C117.568 38.8245 116.349 40 114.432 40C112.666 40 111.322 38.9752 111.322 37.1969C111.322 35.5392 112.491 34.6049 113.91 34.6049C114.258 34.6049 114.457 34.6352 114.756 34.7256C114.258 35.0269 113.985 35.479 113.985 36.142C113.985 37.1066 114.706 37.7998 115.652 37.7998C116.797 37.7998 117.518 37.1066 118.165 35.5996L118.862 34.0926L112.492 21.4339C111.571 19.5652 111.048 19.118 110.277 19.118H106.693V28.4263C106.693 29.9635 107.29 30.8374 108.485 30.8374C109.854 30.8374 110.749 29.6319 111.148 27.5523L111.496 27.6727C111.123 30.5661 109.729 33.3994 106.096 33.3994C103.358 33.3994 101.318 31.7718 101.343 28.3057L101.417 19.118ZM66.3776 28.4263V15.647C66.3776 13.6578 66.054 12.9343 64.735 12.0602V12H73.6445V12.0602C72.3006 12.9343 72.0019 13.6578 72.0019 15.647V26.4672C72.0019 31.5307 67.9951 33.3994 63.4907 33.3994C59.7578 33.3994 56 31.7115 56 28.3057C56 26.0754 57.7173 24.8095 59.8575 24.8095C61.0769 24.8095 62.1966 25.2617 62.7939 26.0453C61.2758 26.0152 60.5793 27.3713 60.5793 29.0592C60.5793 31.1388 61.6492 32.5178 63.4907 32.5178C65.3572 32.5178 66.3776 31.1691 66.3776 28.4263ZM81.2843 17.8774C86.0874 17.8774 88.3519 20.9818 88.3519 24.9603H78.8704C78.8704 28.6976 80.8114 30.9279 83.6733 30.9279C85.49 30.9279 87.0827 30.1141 88.0035 28.2454L88.2028 28.3359C87.3317 31.5609 84.6688 33.3994 81.2594 33.3994C76.979 33.3994 73.4701 30.5663 73.4701 25.6534C73.4701 20.9215 77.004 17.8774 81.2843 17.8774ZM78.8954 24.0184H83.2255C83.2255 20.6427 82.6531 18.6986 81.2843 18.6986C79.9156 18.6986 78.9451 20.4619 78.8954 24.0184Z" fill="white"/>
</g>
<defs>
<clipPath id="clip0_3301_16">
<rect width="71" height="28" fill="white" transform="translate(56 12)"/>
</clipPath>
</defs>
</svg>
