<svg xmlns="http://www.w3.org/2000/svg" version="1.1" xmlns:xlink="http://www.w3.org/1999/xlink" xmlns:svgjs="http://svgjs.dev/svgjs" width="78.406" height="152.205"><svg viewBox="235.797 115 78.406 152.205"><path d="M274.504 147.53c0-24.694.053-32.13.23-32.307.274-.274.85-.302 1.006-.05.062.1.109 14.658.105 32.351-.004 23.303-.065 32.241-.219 32.427-.276.332-.454.323-.821-.045-.27-.27-.3-3.471-.3-32.377m10.93-25.125c-.345-.345-.259-1.178.17-1.638.832-.893 2.287-.274 2.287.973 0 .518-.216.842-1.243 1.86-.954.945-1.243 1.359-1.243 1.78 0 .393-.197.717-.704 1.152-.388.333-1.004.871-1.37 1.196l-.664.591.02 3.166c.019 2.823-.016 3.199-.324 3.477-.357.323-.888.25-1.02-.142-.042-.123-.04-1.737.006-3.586l.082-3.362.71-.75a23 23 0 0 1 1.412-1.355c.474-.407.705-.767.705-1.099 0-.3.274-.798.699-1.268.529-.585.645-.827.478-.995m-20.259-.297c-.155-.446-.137-.664.082-.976.154-.22.43-.401.614-.401.684 0 .792.391.792 2.852v2.392l.755.773.754.772.064 2.535.063 2.535.903.829c.498.456.905.95.907 1.099.1 8.538.036 12.27-.21 12.427-.376.237-.475.221-.762-.124-.196-.237-.239-1.531-.198-6.026l.051-5.723-.972-.993-.972-.993v-4.825l-.598-.562c-1.14-1.071-1.275-1.455-1.169-3.325.055-.959.01-1.941-.104-2.266m-12.855 2.639c0-.227.252-.663.56-.971.671-.672 1.162-.705 1.836-.125.378.325.515.638.546 1.242.031.597.192.972.616 1.43 1.095 1.188 1.124 1.267 1.223 3.37.09 1.89.123 2.025.522 2.122.875.213 1.2.699 1.2 1.795 0 1.017.01 1.035 1.243 2.172l1.243 1.147v2.457l1.456 1.239c2.485 2.114 2.56 2.233 2.56 4.084 0 1.831.045 1.9 1.833 2.783.622.308 1.704 1.103 2.404 1.768l1.273 1.209.035 13.116.96 1.153c1.747 2.1 1.675 1.739 1.767 8.88.075 5.884.11 6.397.516 7.736.24.79.564 1.683.72 1.988l.283.553.463-.553c.686-.82 2.286-4.197 2.664-5.621.245-.926.36-2.4.447-5.776.084-3.237.186-4.602.356-4.772.182-.18.243-1.812.255-6.75.008-3.581.074-7.2.147-8.042l.131-1.53 1.192-1.128 1.192-1.13v-7.561l-.574-.574c-.716-.716-.755-1.518-.112-2.266.387-.45.603-.533 1.335-.518.692.014.897-.055.986-.336.062-.194.33-.611.594-.926.435-.517.592-.573 1.609-.573h1.127l.434-.906c.26-.545.775-1.163 1.291-1.552.505-.382 1.166-1.169 1.606-1.916 1.098-1.86 1.188-1.937 2.252-1.937 1.264 0 1.691-.436 1.691-1.725 0-.904.057-1.015.956-1.873.596-.568.957-1.075.957-1.344 0-.553.876-1.369 1.47-1.369.566 0 1.398.797 1.398 1.339 0 .588-.839 1.338-1.497 1.338-.415 0-.759.218-1.347.857-.709.768-.79.955-.79 1.826 0 .805-.086 1.05-.51 1.443-.282.26-.69.51-.909.553-1.987.402-1.876.331-2.648 1.675-.497.865-1.035 1.491-1.679 1.954-.52.374-.947.775-.947.89 0 .51-.671 1.552-1.163 1.807-.297.153-.952.282-1.457.287-.838.007-.955.067-1.348.682-.237.371-.43.963-.43 1.316 0 .405-.177.85-.478 1.21-.478.568-.479.57-.479 4.732v4.165l-1.147 1.112-1.147 1.113v6.99c0 6.835.008 6.984.367 6.792.202-.108.676-.487 1.052-.842l.684-.645v-1.912c0-2.204.132-2.474 1.703-3.482.52-.333 1.167-.897 1.438-1.252.487-.64.493-.686.493-4.072 0-3.148.03-3.453.371-3.761.305-.277.352-.5.262-1.259-.099-.833-.058-.97.422-1.415.292-.27.727-.492.967-.492.299 0 .849-.45 1.741-1.423 1.204-1.314 1.305-1.49 1.31-2.285.01-1.593 1.376-2.371 2.47-1.408.27.237.542.707.607 1.044.099.514.023.71-.464 1.196-.32.32-.747.581-.95.581-.22 0-.913.603-1.702 1.482-1.26 1.402-1.327 1.524-1.253 2.264.097.975-.501 1.764-1.49 1.966l-.666.136-.053 2.931c-.05 2.752-.032 2.922.287 2.77.187-.09 1.416-.19 2.73-.224l2.391-.061 1.817-1.783v-4.597c.001-4.33.024-4.636.403-5.266.707-1.177 1.139-1.53 1.871-1.53.56 0 .853-.173 1.688-.998.821-.81 1.01-1.118 1.01-1.64 0-.934.931-1.834 1.775-1.715.339.048.755.148.926.223.228.1.492-.112 1.002-.806.707-.964 1.184-1.176 2.656-1.182.453-.002.526-.08.526-.562 0-.658.756-1.352 1.475-1.352.265 0 .718.25 1.048.58.489.49.562.68.459 1.196-.226 1.13-.65 1.35-2.738 1.428l-1.87.068-.72.802a10 10 0 0 0-1.184 1.683c-.51.965-1.268 1.418-2.05 1.221-.403-.1-.64.06-1.567 1.06-.901.974-1.225 1.197-1.854 1.282-.917.123-1.8 1.022-1.63 1.66.06.219.109 1.943.11 3.832l.003 3.433 1.45-1.416H303v-.684c0-.501.149-.834.558-1.243.615-.615 1.18-.698 1.965-.288.512.267.534.252 2.623-1.913 1.159-1.2 2.194-2.183 2.301-2.183s.25-.218.316-.483c.226-.902 1.387-1.139 2.25-.46 1.333 1.048-.031 3.122-1.62 2.464l-.593-.245-1.978 1.991c-1.335 1.343-2.08 2.257-2.291 2.805-.172.447-.496.942-.722 1.1-.479.336-1.684.38-1.99.073-.158-.157-.33-.132-.655.096-.336.235-.904.308-2.38.308h-1.94l-1.4 1.483-1.4 1.482 2.813.095 2.813.096 1.686 1.673 1.685 1.674h5.825l.631-.67c.726-.77 1.348-.857 2.07-.29.835.658.849 1.564.034 2.38-.352.35-1.437.4-1.757.08-.153-.153-1.3-.207-3.782-.179l-3.56.04-1.787-1.752-1.787-1.752-1.02.13c-.562.071-3.124.17-5.695.22l-4.674.091-1.445 1.38c-.796.758-1.807 1.635-2.247 1.95-.955.68-1.01.843-1.013 3.034l-.003 1.699-1.72 1.67-1.722 1.672v3.861c0 5.038-.315 7.122-1.472 9.738-.668 1.512-2.269 3.886-3.757 5.575-.695.79-1.266 1.54-1.269 1.667s.168.324.378.437c.271.144.383.4.383.873 0 .828-.264.94-1.324.566-.455-.16-.928-.292-1.05-.292-.221 0-2.025 2.028-2.025 2.277 0 .072.91.233 2.02.358s2.1.275 2.199.336c.265.164.219.966-.069 1.205-.179.148-.755.129-2.056-.07-.993-.15-2.194-.275-2.667-.276-.844-.002-.876.022-1.603 1.15-.41.634-.71 1.184-.67 1.222s1.493.17 3.229.293 3.306.267 3.49.32c.436.125.749.72.592 1.129-.11.286-.349.306-2.15.182a781 781 0 0 0-4.016-.263l-1.99-.125-.24.578c-.132.317-.3.984-.375 1.482l-.135.904 4.372.052 4.372.051v1.148l-8.797.191.014.43c.007.237.029.732.047 1.1l.035.67 4.16.002c2.287.002 4.273.076 4.413.164.145.092.227.4.191.715l-.063.553-3.968.051c-3.615.047-3.968.081-3.966.383.008.839.14.864 4.136.787l3.798-.074.063.44c.119.84-.171.93-3.454 1.074-1.707.075-3.142.174-3.188.22-.144.145.383.975 1.226 1.933l.813.923 2.07-.422c2.264-.46 2.631-.389 2.528.495-.062.522-.168.569-2.32 1.028l-1.115.237 1.083 1.091c.917.924 1.136 1.059 1.425.879.557-.348.965-.055.965.696 0 .59.257.94 2.21 3.004 4.583 4.843 6.298 8.577 6.268 13.646-.017 2.886-.489 5.095-1.917 8.988-2.28 6.216-2.744 8.28-2.878 12.813-.078 2.668-.037 3.281.32 4.781q.779 3.27 2.795 5.641c1.348 1.586 1.346 2.014-.01 1.997-.525-.007-1.515-.18-2.199-.383-1.876-.559-6.937-.521-9.115.068-1.772.48-2.374.523-2.703.193-.344-.344-.296-.472.512-1.352.982-1.073 2.385-3.268 3.088-4.836.847-1.887 1.265-3.455 1.913-7.16.322-1.841.89-4.509 1.26-5.929.897-3.42 1.04-5.582.489-7.39-.485-1.59-.98-2.384-3.265-5.232-2.079-2.591-2.868-3.87-3.564-5.772-1.28-3.496-.625-7.2 1.858-10.53.402-.538.73-1.027.729-1.087 0-.06-.65-.798-1.442-1.64-3.019-3.207-4.62-5.67-5.658-8.7-.574-1.679-.622-2.007-.627-4.304-.005-2.015.075-2.775.426-4.016.94-3.327 2.891-6.423 6.446-10.226 1.558-1.666 1.833-2.054 1.755-2.473-.05-.273-.332-1.443-.624-2.6-.52-2.058-.533-2.24-.585-8.32-.029-3.417-.057-6.365-.062-6.548-.016-.558-1.326-1.831-2.56-2.489-.64-.34-1.426-.893-1.745-1.229-.534-.558-.597-.77-.773-2.581l-.191-1.973-1.078-.341c-.93-.295-1.316-.587-2.816-2.138l-1.738-1.797-.053-2.918-.052-2.92-.957-.776a122 122 0 0 0-1.62-1.291c-.57-.444-.676-.656-.764-1.53l-.102-1.015-1.005-.101c-1.358-.136-2.097-.853-2.318-2.247-.129-.816-.323-1.171-1.094-2-.984-1.056-1.364-1.234-2.726-1.27-.944-.026-.969-.048-3.734-3.205-1.677-1.915-1.707-1.938-2.424-1.841-.6.08-.812.011-1.219-.396-.69-.69-.657-1.522.09-2.268.485-.486.681-.562 1.194-.464.776.15 1.475.93 1.475 1.648 0 .303.084.604.187.668.164.1 2.13 2.274 3.687 4.077.49.566.615.61 1.733.61h1.205l1.343 1.482c1.168 1.29 1.36 1.605 1.471 2.42.168 1.231.383 1.453 1.408 1.453 1.105 0 1.97.776 1.97 1.766 0 .7.224 1.069.935 1.542.251.167 1.004.835 1.673 1.484l1.217 1.181v4.913l1.066 1.194c1.284 1.44 1.487 1.59 2.536 1.872.45.121 1.158.527 1.573.902l.754.681v3.55l1.434 1.26.05-6.937.05-6.935-.91-.838c-.502-.46-1.475-1.138-2.164-1.506-1.886-1.005-1.992-1.175-2.03-3.24a75 75 0 0 0-.049-1.873c-.008-.067-.865-.825-1.904-1.684-2.01-1.661-2.12-1.849-2.125-3.669-.002-.547-.114-.768-.528-1.036-.29-.188-.856-.714-1.26-1.17-.473-.535-.892-.828-1.184-.828-.698 0-1.484-.78-1.456-1.446l.128-3.048.105-2.486-.878-.909c-.483-.5-1.01-.908-1.17-.908-.434 0-1.409-1.058-1.409-1.53zm-14.266 20.51c-.096-.479-.023-.692.371-1.086.344-.344.696-.491 1.172-.491.563 0 .747.107 1.06.621.208.342.38.78.38.975s.806 1.186 1.792 2.203c1.217 1.256 1.835 2.047 1.928 2.468.15.682.133.677 2.28.7 1.236.012 1.353-.024 1.941-.608 1.02-1.013 2.465-.732 2.874.558.075.235.813 1.064 1.64 1.843l1.506 1.415v2.905l.956.898c1.016.954 1.204 1.558.588 1.887-.305.163-.542.049-1.386-.668-1.255-1.065-1.475-1.543-1.496-3.245l-.016-1.338-1.15-1.004c-1.137-.994-1.154-1.002-1.711-.713-.652.337-1.347.22-1.825-.308-.284-.314-.604-.366-2.261-.367-1.73 0-1.988-.047-2.483-.443-.305-.243-.649-.709-.765-1.034-.117-.325-.89-1.33-1.72-2.234-1.374-1.497-1.57-1.643-2.218-1.643-.821 0-1.28-.406-1.457-1.29m7.248 9.908 2.41-.06c1.325-.032 2.586-.077 2.801-.1s.496.061.622.188c.298.297.295 1.045-.004 1.23-.128.08-1.322.121-2.652.093l-2.42-.051-1.11 1.257-1.111 1.257h-4.725l-.588.67c-.709.807-1.43.878-2.2.216-.402-.346-.528-.625-.528-1.173 0-1.268 1.502-2.083 2.479-1.344.277.21.955.282 2.694.286l2.324.006 1.004-1.237zm57.18 7.957c.232-.245.594-.544.804-.663.507-.288.59-.281.943.072.401.401.371.659-.142 1.229-.914 1.015-1.019 1.047-3.746 1.148l-2.601.095 1.81 1.877 1.808 1.877.9-.123c1.084-.15 1.697.122 1.697.751 0 .74-.396.905-1.845.767l-1.31-.124-2.69-2.666-2.689-2.665-2.856-.032c-1.576-.019-2.992.05-3.158.152-.166.103-1.187 1.15-2.268 2.326-2.132 2.32-2.84 2.79-4.06 2.7-1.168-.087-1.396-.584-.598-1.303.338-.305.954-.645 1.37-.757.618-.167 1.111-.605 2.72-2.418 1.081-1.219 2.17-2.293 2.42-2.388s1.805-.172 3.455-.172c2.671.001 3.062.043 3.573.381.505.335.901.38 3.308.381 2.618.002 2.752-.017 3.155-.445m-48.167 1.396c.71-.839 1.353-1.405 1.721-1.517.323-.097 2.16-.16 4.084-.14l3.497.038 2.336 2.409c1.59 1.64 2.638 2.555 3.281 2.869 1.048.51 1.38.907 1.185 1.417-.112.293-.288.323-1.282.22-.634-.067-1.317-.21-1.518-.317s-1.286-1.206-2.411-2.44c-1.125-1.235-2.226-2.301-2.447-2.37-.22-.068-1.798-.132-3.507-.143l-3.106-.019-1.302 1.339-1.302 1.338h-2.716c-1.493 0-2.715.075-2.715.166 0 .09-.227.392-.504.669-.652.652-1.64.69-2.067.079-.435-.622-.367-1.065.261-1.693l.56-.56 3.409-.003 3.409-.004zm16.929 59.1c-.454 0 .661-2.494 1.527-3.415.238-.254.38-.431.552-.467.346-.07.81.434 2.398 2.059 3.538 3.616 4.993 6.47 5.225 10.25.154 2.512-.363 5.347-.974 5.341-.357-.003-2.635-1.822-3.929-3.136l-1.234-1.254.54-.564c.419-.437.514-.677.419-1.056-.153-.609-.701-.645-1.472-.096-.304.217-.646.338-.759.268-.315-.195-1.328-1.647-1.328-1.904 0-.125.775-.58 1.722-1.012 1.627-.741 1.72-.816 1.72-1.375 0-.325-.11-.634-.247-.686s-.999.252-1.916.676c-.917.423-1.788.77-1.935.77-.252 0-.687-1.45-.679-2.256.003-.23.584-.576 1.96-1.17 2.673-1.155 2.818-1.254 2.818-1.939 0-.316-.112-.618-.248-.67s-1.08.294-2.1.77-1.947.867-2.06.867" fill-rule="evenodd"></path></svg><style>@media (prefers-color-scheme: light) { :root { filter: none; } }
@media (prefers-color-scheme: dark) { :root { filter: invert(100%); } }
</style></svg>