<!-- https://bgjar.com/animated-shape transparent / 14 shapes / 1440w / 1024h -->
<svg xmlns="http://www.w3.org/2000/svg" version="1.1" xmlns:xlink="http://www.w3.org/1999/xlink" xmlns:svgjs="http://svgjs.dev/svgjs" width="1440" height="1024" preserveAspectRatio="none" viewBox="0 0 1440 1024">
    <g mask="url(&quot;#SvgjsMask1026&quot;)" fill="none">
        <path d="M1296.849,1048.026C1342.329,1048.766,1375.898,1009.074,1396.149,968.345C1414.053,932.336,1413.497,890.083,1392.401,855.847C1372.305,823.233,1335.145,808.144,1296.849,807.192C1256.509,806.189,1213.302,816.187,1192.694,850.88C1171.751,886.138,1183.833,928.944,1202.99,965.204C1223.881,1004.746,1252.134,1047.299,1296.849,1048.026" fill="rgba(28, 83, 142, 0.4)" class="triangle-float3"></path>
        <path d="M1350.5283329006718 791.1552641677425L1212.4283889459298 679.3241345680672 1238.6972033009965 929.2552081224844z" fill="rgba(28, 83, 142, 0.4)" class="triangle-float3"></path>
        <path d="M1250.774,1270.403C1359.791,1273.684,1464.219,1212.625,1513.832,1115.496C1559.848,1025.409,1526.463,921.194,1473.018,835.306C1423.181,755.216,1345.089,694.448,1250.774,692.752C1153.612,691.005,1063.077,743.04,1014.239,827.055C965.153,911.498,967.806,1014.271,1013.782,1100.446C1062.826,1192.372,1146.63,1267.269,1250.774,1270.403" fill="rgba(28, 83, 142, 0.4)" class="triangle-float2"></path>
        <path d="M1320.3626996110165 506.3735418816772L1345.6079905398806 686.0031205896971 1525.2375692479004 660.7578296608331 1499.9922783190364 481.1282509528131z" fill="rgba(28, 83, 142, 0.4)" class="triangle-float2"></path>
        <path d="M165.08977029328963 93.62644463396174L261.26062664333017 357.8537008653124 525.4878828746808 261.6828445152719 429.3170265246403-2.5444117160787982z" fill="rgba(28, 83, 142, 0.4)" class="triangle-float3"></path>
        <path d="M900.4581759174002 362.65335461975894L1103.8701917647268 516.2394574111711 1134.8789994342992 295.6003261918597z" fill="rgba(28, 83, 142, 0.4)" class="triangle-float1"></path>
        <path d="M639.2957396014924 566.4000443534522L491.4398474217427 474.0094288311167 546.9051240791568 714.255936533202z" fill="rgba(28, 83, 142, 0.4)" class="triangle-float2"></path>
        <path d="M601.3742061934657 525.4248505381984L517.2104117222841 637.1139781591045 726.826000389234 707.5151060554239z" fill="rgba(28, 83, 142, 0.4)" class="triangle-float3"></path>
        <path d="M847.5570505935755 764.4267878990072L571.3910991607249 828.1847215567794 635.1490328184973 1104.3506729896299 911.3149842513477 1040.5927393318577z" fill="rgba(28, 83, 142, 0.4)" class="triangle-float1"></path>
        <path d="M1174.161437594659-130.51614267731375L1071.2039772493265 71.54925061656562 1273.269370543206 174.50671096189805 1376.2268308885384-27.558682331981345z" fill="rgba(28, 83, 142, 0.4)" class="triangle-float3"></path>
        <path d="M211.294,824.904C271.794,820.543,310.93,766.518,338.55,712.514C363.202,664.312,368.764,610.372,346.179,561.168C318.68,501.259,277.205,434.215,211.294,435.273C146.199,436.318,115.017,508.301,83.709,565.382C54.175,619.228,20.639,678.361,47.734,733.475C77.269,793.553,144.522,829.717,211.294,824.904" fill="rgba(28, 83, 142, 0.4)" class="triangle-float1"></path>
        <path d="M588.9772776109883 58.76122583279522L742.6013209335907 120.82936825396288 804.6694633547584-32.79467506863955 651.0454200321559-94.86281748980721z" fill="rgba(28, 83, 142, 0.4)" class="triangle-float3"></path>
        <path d="M1514.128853794091 416.67444716530775L1301.9642807617438 289.19311047737364 1386.6475171061568 628.8390201976549z" fill="rgba(28, 83, 142, 0.4)" class="triangle-float2"></path>
        <path d="M702.8103735397226 397.49415025624967L911.6245145837555 321.49201842235703 835.6223827498629 112.67787737832407 626.8082417058299 188.68000921221673z" fill="rgba(28, 83, 142, 0.4)" class="triangle-float3"></path>
    </g>
    <defs>
        <mask id="SvgjsMask1026">
            <rect width="1440" height="1024" fill="#ffffff"></rect>
        </mask>
        <style>
            @keyframes float1 {
                    0%{transform: translate(0, 0)}
                    50%{transform: translate(-10px, 0)}
                    100%{transform: translate(0, 0)}
                }

                .triangle-float1 {
                    animation: float1 5s infinite;
                }

                @keyframes float2 {
                    0%{transform: translate(0, 0)}
                    50%{transform: translate(-5px, -5px)}
                    100%{transform: translate(0, 0)}
                }

                .triangle-float2 {
                    animation: float2 4s infinite;
                }

                @keyframes float3 {
                    0%{transform: translate(0, 0)}
                    50%{transform: translate(0, -10px)}
                    100%{transform: translate(0, 0)}
                }

                .triangle-float3 {
                    animation: float3 6s infinite;
                }
        </style>
    </defs>
</svg>
