<svg version="1.1" x="0px" y="0px" viewBox="0 0 721.98 236.77" enable-background="new 0 0 1749.46 236.77" xml:space="preserve" id="svg18" sodipodi:docname="google.svg" width="721.97998" height="236.77" inkscape:version="1.3.1 (91b66b0, 2023-11-16)" xmlns:inkscape="http://www.inkscape.org/namespaces/inkscape" xmlns:sodipodi="http://sodipodi.sourceforge.net/DTD/sodipodi-0.dtd" xmlns="http://www.w3.org/2000/svg" xmlns:svg="http://www.w3.org/2000/svg"><defs id="defs18"/><sodipodi:namedview id="namedview18" pagecolor="#ffffff" bordercolor="#000000" borderopacity="0.25" inkscape:showpageshadow="2" inkscape:pageopacity="0.0" inkscape:pagecheckerboard="0" inkscape:deskcolor="#d1d1d1" inkscape:zoom="0.70993337" inkscape:cx="874.72998" inkscape:cy="118.32096" inkscape:window-width="1392" inkscape:window-height="1027" inkscape:window-x="48" inkscape:window-y="25" inkscape:window-maximized="0" inkscape:current-layer="svg18"/>
<g id="Google">
	<g id="_x37_22x237pt">
		<g id="g6">
			<path fill="#0081c6" d="M 93.18,183.68 C 42.56,183.68 0,142.46 0,91.84 0,41.22 42.56,0 93.18,0 c 28,0 47.94,10.98 62.94,25.31 l -17.7,17.7 C 127.67,32.93 113.11,25.09 93.17,25.09 c -36.96,0 -65.86,29.79 -65.86,66.75 0,36.96 28.9,66.75 65.86,66.75 23.97,0 37.63,-9.63 46.37,-18.37 7.17,-7.17 11.87,-17.47 13.66,-31.58 H 93.18 V 83.55 h 84.45 c 0.9,4.48 1.34,9.86 1.34,15.68 0,18.82 -5.15,42.11 -21.73,58.69 -16.12,16.8 -36.73,25.76 -64.06,25.76 z" id="path1"/>
			<path fill="#f04931" d="m 305.83,124.54 c 0,34.05 -26.65,59.13 -59.36,59.13 -32.7,0 -59.36,-25.09 -59.36,-59.13 0,-34.27 26.66,-59.14 59.36,-59.14 32.71,0.01 59.36,24.87 59.36,59.14 z m -25.98,0 c 0,-21.28 -15.46,-35.84 -33.38,-35.84 -17.92,0 -33.38,14.56 -33.38,35.84 0,21.05 15.46,35.84 33.38,35.84 17.92,0 33.38,-14.78 33.38,-35.84 z" id="path2"/>
			<path fill="#fbab18" d="m 434.83,124.54 c 0,34.05 -26.65,59.13 -59.36,59.13 -32.7,0 -59.36,-25.09 -59.36,-59.13 0,-34.27 26.66,-59.14 59.36,-59.14 32.71,0.01 59.36,24.87 59.36,59.14 z m -25.98,0 c 0,-21.28 -15.46,-35.84 -33.38,-35.84 -17.92,0 -33.38,14.56 -33.38,35.84 0,21.05 15.46,35.84 33.38,35.84 17.92,0 33.38,-14.78 33.38,-35.84 z" id="path3"/>
			<path fill="#0081c6" d="m 558.68,69.1 v 106.07 c 0,43.68 -25.76,61.6 -56.22,61.6 -28.67,0 -45.92,-19.26 -52.42,-34.94 l 22.62,-9.41 c 4.03,9.63 13.89,21.05 29.79,21.05 19.49,0 31.58,-12.1 31.58,-34.72 v -8.51 h -0.89 c -5.82,7.17 -17.03,13.44 -31.14,13.44 -29.57,0 -56.67,-25.76 -56.67,-58.91 0,-33.38 27.1,-59.36 56.67,-59.36 14.11,0 25.31,6.27 31.14,13.22 h 0.89 V 69.1 Z m -22.85,55.67 c 0,-20.83 -13.89,-36.06 -31.58,-36.06 -17.92,0 -32.93,15.23 -32.93,36.06 0,20.61 15.01,35.62 32.93,35.62 17.69,-0.01 31.58,-15.01 31.58,-35.62 z" id="path4"/>
			<path fill="#00ae57" d="M 601.96,6.27 V 180.1 H 575.98 V 6.27 Z" id="path5"/>
			<path fill="#f04931" d="m 700.7,144.03 20.16,13.44 c -6.5,9.63 -22.18,26.21 -49.28,26.21 -33.6,0 -58,-25.98 -58,-59.13 0,-35.17 24.62,-59.14 55.09,-59.14 30.69,0 45.7,24.42 50.62,37.63 l 2.69,6.72 -79.07,32.7 c 6.05,11.87 15.46,17.92 28.67,17.92 13.21,0 22.4,-6.49 29.12,-16.35 z m -62.05,-21.28 52.86,-21.95 c -2.91,-7.39 -11.65,-12.54 -21.95,-12.54 -13.22,0 -31.58,11.64 -30.91,34.49 z" id="path6"/>
		</g>
	</g>
</g>
</svg>